<?xml version="1.0"?><svg version="1.1" xmlns="http://www.w3.org/2000/svg" width="11px" height="12px"><path fill="#FFFFFF" d="M9,1.41c-0.03,0.04-0.08,0.06-0.1,0.1L3.97,9L1.98,6.86C1.55,6.4,0.83,6.37,0.37,6.8C-0.1,7.23-0.12,7.96,0.31,8.42l2.98,3.21C3.5,11.87,3.81,12,4.12,12c0.03,0,0.06,0,0.1,0c0.35-0.03,0.67-0.22,0.86-0.51L9,5.53V1.41z"/><path d="M4.12,11c-0.32,0-0.62-0.13-0.84-0.37L0.31,7.42C-0.12,6.96-0.1,6.24,0.37,5.8c0.46-0.43,1.19-0.4,1.62,0.06L3.97,8L8.9,0.52c0.35-0.53,1.06-0.68,1.59-0.33c0.53,0.35,0.67,1.06,0.33,1.59l-5.73,8.71c-0.19,0.29-0.51,0.48-0.86,0.51C4.19,11,4.16,11,4.12,11z"/></svg>